<svg width="400" height="800" viewBox="0 0 400 800" fill="none" xmlns="http://www.w3.org/2000/svg">
  <defs>
    <linearGradient id="skyGradient" x1="0%" y1="0%" x2="0%" y2="100%">
      <stop offset="0%" style="stop-color:#87CEEB;stop-opacity:1" />
      <stop offset="30%" style="stop-color:#4A90E2;stop-opacity:1" />
      <stop offset="70%" style="stop-color:#2E7D32;stop-opacity:1" />
      <stop offset="100%" style="stop-color:#1B5E20;stop-opacity:1" />
    </linearGradient>
    <radialGradient id="cloudGradient" cx="50%" cy="50%" r="50%">
      <stop offset="0%" style="stop-color:#FFFFFF;stop-opacity:0.9" />
      <stop offset="100%" style="stop-color:#F0F8FF;stop-opacity:0.7" />
    </radialGradient>
  </defs>
  
  <!-- Sky Background -->
  <rect width="400" height="800" fill="url(#skyGradient)"/>
  
  <!-- Clouds -->
  <ellipse cx="80" cy="120" rx="40" ry="20" fill="url(#cloudGradient)"/>
  <ellipse cx="100" cy="110" rx="35" ry="18" fill="url(#cloudGradient)"/>
  <ellipse cx="120" cy="115" rx="30" ry="15" fill="url(#cloudGradient)"/>
  
  <ellipse cx="280" cy="180" rx="45" ry="22" fill="url(#cloudGradient)"/>
  <ellipse cx="300" cy="170" rx="38" ry="19" fill="url(#cloudGradient)"/>
  <ellipse cx="320" cy="175" rx="32" ry="16" fill="url(#cloudGradient)"/>
  
  <ellipse cx="150" cy="250" rx="35" ry="18" fill="url(#cloudGradient)"/>
  <ellipse cx="170" cy="240" rx="30" ry="15" fill="url(#cloudGradient)"/>
  
  <ellipse cx="320" cy="320" rx="40" ry="20" fill="url(#cloudGradient)"/>
  <ellipse cx="340" cy="310" rx="35" ry="18" fill="url(#cloudGradient)"/>
  
  <!-- Hills -->
  <path d="M0 500 Q100 450 200 480 T400 500 L400 800 L0 800 Z" fill="#4CAF50" opacity="0.8"/>
  <path d="M0 550 Q150 500 300 530 T400 550 L400 800 L0 800 Z" fill="#66BB6A" opacity="0.9"/>
  <path d="M0 600 Q200 550 400 600 L400 800 L0 800 Z" fill="#81C784"/>
  
  <!-- Grass texture -->
  <g opacity="0.3">
    <line x1="50" y1="600" x2="50" y2="610" stroke="#2E7D32" stroke-width="1"/>
    <line x1="80" y1="580" x2="80" y2="590" stroke="#2E7D32" stroke-width="1"/>
    <line x1="120" y1="590" x2="120" y2="600" stroke="#2E7D32" stroke-width="1"/>
    <line x1="180" y1="570" x2="180" y2="580" stroke="#2E7D32" stroke-width="1"/>
    <line x1="220" y1="585" x2="220" y2="595" stroke="#2E7D32" stroke-width="1"/>
    <line x1="280" y1="575" x2="280" y2="585" stroke="#2E7D32" stroke-width="1"/>
    <line x1="320" y1="590" x2="320" y2="600" stroke="#2E7D32" stroke-width="1"/>
    <line x1="360" y1="580" x2="360" y2="590" stroke="#2E7D32" stroke-width="1"/>
  </g>
</svg>